
<svg width="898" height="588" viewBox="0 0 898 588" fill="none" xmlns="http://www.w3.org/2000/svg">
<path d="M873.634 222.146C873.634 222.146 853.998 118.482 713.61 54.4488C573.223 -9.58439 508.208 54.1548 437.625 80.7324C367.042 107.31 328.788 70.7364 210.97 53.4492C93.1523 36.162 -8.92035 207.917 24.4853 342.04C57.831 476.162 131.467 523.967 292.448 554.425C453.43 584.942 548.678 484.336 662.544 502.622C776.411 520.909 911.889 418.244 873.634 222.146Z" fill="#F0F2F3"/>
<path d="M809.697 461.933C809.457 461.874 809.337 461.639 809.457 461.462C815.324 443.764 830.41 430.122 848.849 425.888C849.029 425.83 849.268 426.006 849.328 426.241C849.388 426.476 849.268 426.653 849.029 426.712C830.889 430.886 816.042 444.293 810.235 461.698C810.176 461.933 809.936 462.05 809.697 461.992C809.697 461.992 809.697 461.972 809.697 461.933Z" fill="#263238"/>
<path d="M824.125 450.643C820.054 447.292 813.648 452.819 813.708 452.995C813.269 453.779 812.85 454.563 812.451 455.347C813.289 454.524 816.283 454.054 820.174 454.936C824.005 455.641 828.136 453.642 824.125 450.643Z" fill="#263238"/>
<path d="M811.972 441.588C807.841 438.53 805.865 445.234 808.5 448.409C811.074 451.525 812.391 454.112 812.331 455.288C812.69 454.465 813.089 453.662 813.528 452.878C813.289 452.819 815.743 444.704 811.972 441.588Z" fill="#263238"/>
<path d="M829.393 444.881C825.921 440.941 818.677 445.234 818.737 445.41C818.178 446.116 817.619 446.802 817.061 447.468C818.078 446.88 821.072 446.939 824.723 448.409C828.435 449.761 832.805 448.526 829.393 444.881Z" fill="#263238"/>
<path d="M818.917 434.003C815.385 430.24 812.272 436.531 814.427 440.059C816.343 443.587 817.241 446.292 817.001 447.468C817.52 446.723 818.039 445.998 818.558 445.292C818.378 445.234 822.09 437.648 818.917 434.003Z" fill="#263238"/>
<path d="M835.44 440.118C832.746 435.708 824.903 438.707 824.903 438.883C824.265 439.432 823.606 440.02 822.928 440.647C824.065 440.177 826.939 440.765 830.291 442.823C833.704 444.763 838.254 444.234 835.44 440.118Z" fill="#263238"/>
<path d="M826.999 427.652C824.185 423.419 820.054 429.064 821.551 432.886C822.868 436.649 823.347 439.471 822.868 440.588C823.506 439.922 824.145 439.295 824.783 438.707C824.544 438.648 829.513 431.768 826.999 427.652Z" fill="#263238"/>
<path d="M842.324 436.414C840.349 431.592 832.087 433.238 832.087 433.474C831.329 433.905 830.59 434.375 829.872 434.885C831.01 434.591 833.763 435.649 836.757 438.236C839.75 440.706 844.3 440.941 842.324 436.414Z" fill="#263238"/>
<path d="M836.098 422.713C834.003 418.068 828.974 422.948 829.812 426.947C830.471 430.945 830.411 433.826 829.812 434.826C830.53 434.277 831.249 433.748 831.967 433.238C831.788 433.121 837.834 427.241 836.098 422.713Z" fill="#263238"/>
<path d="M849.747 433.826C848.67 428.77 840.169 429.122 840.109 429.299C839.311 429.612 838.492 429.946 837.654 430.298C838.852 430.24 841.426 431.71 843.88 434.767C846.455 437.707 850.945 438.648 849.747 433.826Z" fill="#263238"/>
<path d="M845.976 419.362C844.719 414.422 838.852 418.421 838.971 422.537C838.971 426.535 838.433 429.358 837.654 430.24C838.413 429.808 839.211 429.416 840.049 429.064C839.869 428.946 846.934 424.066 845.976 419.362Z" fill="#263238"/>
<path d="M844.959 427.358C844.839 427.3 851.245 423.066 855.435 422.419C859.506 421.655 861.063 424.477 860.344 426.124C859.746 427.77 856.872 428.182 854.418 428.064C852.023 427.711 845.019 427.241 844.959 427.358Z" fill="#263238"/>
<path fill-rule="evenodd" clip-rule="evenodd" d="M844.839 427.652C844.839 427.652 844.839 427.633 844.839 427.594C844.719 427.535 844.659 427.417 844.659 427.3C844.719 427.241 844.719 427.182 844.839 427.123C845.856 426.124 851.783 422.713 855.375 422.125C857.351 421.772 859.087 422.184 860.045 423.36C860.763 424.183 861.003 425.3 860.644 426.241C859.746 428.476 855.675 428.417 854.417 428.358C852.083 428.005 845.677 427.594 845.078 427.652C844.998 427.652 844.919 427.652 844.839 427.652ZM858.429 422.831C857.71 422.596 856.752 422.419 855.435 422.654C852.202 423.184 847.533 425.947 845.797 427.064C846.455 427.123 847.353 427.182 848.85 427.241C850.706 427.417 853.22 427.594 854.477 427.77C856.812 427.946 859.506 427.535 860.105 426.006C860.404 425.3 860.225 424.418 859.626 423.713C859.386 423.419 859.027 423.066 858.429 422.831Z" fill="#263238"/>
<path d="M809.996 461.639C809.816 461.698 809.577 461.639 809.457 461.462C800.238 445.175 800.357 425.065 809.757 408.895C809.876 408.719 810.116 408.66 810.355 408.778C810.535 408.895 810.595 409.13 810.475 409.307C801.256 425.242 801.136 444.998 810.176 461.051C810.295 461.227 810.235 461.462 809.996 461.58C809.996 461.58 809.996 461.6 809.996 461.639Z" fill="#263238"/>
<path d="M811.372 443.47C806.164 444.175 805.865 452.525 806.044 452.584C806.324 453.446 806.623 454.289 806.942 455.112C806.942 453.936 808.618 451.525 811.851 449.291C815.024 446.998 816.341 442.646 811.372 443.47Z" fill="#263238"/>
<path d="M796.346 446.116C791.257 446.998 794.909 452.995 799.1 453.23C803.171 453.524 805.984 454.348 806.823 455.171C806.463 454.348 806.124 453.524 805.805 452.701C805.685 452.819 801.255 445.528 796.346 446.116Z" fill="#263238"/>
<path d="M810.655 435.826C805.386 435.649 803.65 443.764 803.83 443.822C803.95 444.724 804.089 445.606 804.249 446.468C804.429 445.292 806.524 443.176 810.116 441.588C813.648 439.824 815.683 435.826 810.655 435.826Z" fill="#263238"/>
<path d="M795.388 435.943C790.24 435.943 792.814 442.411 796.825 443.293C800.836 444.293 803.47 445.528 804.189 446.469C803.949 445.606 803.75 444.744 803.59 443.881C803.411 443.999 800.297 436.12 795.388 435.943Z" fill="#263238"/>
<path d="M811.253 428.182C806.105 427.123 802.992 434.826 803.171 434.944C803.131 435.806 803.111 436.668 803.111 437.531C803.53 436.472 805.925 434.767 809.757 433.768C813.528 432.65 816.222 429.005 811.253 428.182Z" fill="#263238"/>
<path d="M796.167 425.83C791.078 424.948 792.515 431.768 796.347 433.297C800.118 434.885 802.513 436.531 803.052 437.59C802.972 436.688 802.912 435.806 802.872 434.944C802.693 435.002 801.016 426.829 796.167 425.83Z" fill="#263238"/>
<path d="M813.109 420.714C808.2 418.891 803.83 425.947 804.009 426.065C803.81 426.927 803.65 427.79 803.53 428.652C804.129 427.652 806.763 426.359 810.714 426.006C814.606 425.536 817.898 422.36 813.109 420.714Z" fill="#263238"/>
<path d="M798.681 415.892C793.772 414.246 794.071 421.184 797.603 423.301C801.016 425.536 803.111 427.535 803.41 428.652C803.49 427.79 803.61 426.927 803.769 426.065C803.53 426.124 803.231 417.715 798.681 415.892Z" fill="#263238"/>
<path d="M816.282 413.658C811.732 411.012 806.225 417.304 806.344 417.48C806.025 418.303 805.726 419.126 805.446 419.95C806.165 419.009 809.038 418.186 812.989 418.48C816.941 418.656 820.712 416.069 816.282 413.658Z" fill="#263238"/>
<path d="M802.872 406.484C798.322 404.015 797.364 411.012 800.477 413.658C803.471 416.422 805.207 418.774 805.326 419.891C805.566 419.068 805.825 418.225 806.105 417.362C805.865 417.421 807.063 409.013 802.872 406.484Z" fill="#263238"/>
<path d="M808.2 412.717C808.08 412.717 809.277 405.25 811.612 401.78C813.827 398.311 816.94 399.134 817.718 400.722C818.557 402.368 816.94 404.72 815.144 406.367C813.288 407.837 808.14 412.6 808.2 412.717Z" fill="#263238"/>
<path fill-rule="evenodd" clip-rule="evenodd" d="M808.319 412.952C808.319 412.952 808.299 412.952 808.26 412.952C808.14 413.011 808.02 412.952 807.96 412.835C807.9 412.776 807.9 412.717 807.9 412.6C807.9 411.188 809.337 404.603 811.373 401.604C812.45 399.958 813.947 399.017 815.503 399.076C816.581 399.134 817.599 399.722 818.018 400.604C819.095 402.78 816.282 405.72 815.384 406.543C813.528 408.013 808.858 412.306 808.439 412.776C808.439 412.854 808.399 412.913 808.319 412.952ZM813.947 399.958C813.288 400.252 812.57 400.84 811.852 401.957C809.996 404.662 808.918 409.895 808.559 411.894C808.978 411.424 809.696 410.836 810.774 409.836C812.151 408.542 814.007 406.955 814.965 406.132C816.641 404.544 818.197 402.31 817.479 400.84C817.18 400.193 816.342 399.722 815.444 399.664C815.084 399.605 814.546 399.664 813.947 399.958Z" fill="#263238"/>
<path d="M96.8644 461.992C97.044 461.874 97.1038 461.698 97.044 461.521C92.2546 447.115 79.9221 435.943 64.8357 432.474C64.6561 432.474 64.4765 432.592 64.4166 432.768C64.3568 432.944 64.4765 433.121 64.716 433.18C79.503 436.59 91.656 447.527 96.3854 461.756C96.4453 461.933 96.6249 462.05 96.8045 461.992C96.8444 461.992 96.8644 461.992 96.8644 461.992Z" fill="#263238"/>
<path d="M85.0104 452.701C88.363 449.996 93.6312 454.465 93.5714 454.642C93.9306 455.269 94.2698 455.916 94.5891 456.582C93.8707 455.876 91.476 455.524 88.3031 456.229C85.1302 456.817 81.7776 455.171 85.0104 452.701Z" fill="#263238"/>
<path d="M95.0082 445.351C98.3607 442.823 99.9771 448.291 97.8219 450.878C95.7266 453.466 94.649 455.582 94.649 456.523C94.3696 455.857 94.0703 455.19 93.751 454.524C93.8707 454.524 91.8951 447.821 95.0082 445.351Z" fill="#263238"/>
<path d="M80.7603 447.997C83.574 444.822 89.5008 448.291 89.4409 448.468C89.9199 449.016 90.3788 449.565 90.8179 450.114C89.9797 449.644 87.5252 449.702 84.5319 450.878C81.5385 451.996 77.9465 450.996 80.7603 447.997Z" fill="#263238"/>
<path d="M89.3215 439.118C92.1951 436.061 94.7095 441.176 92.9734 444.058C91.4169 446.939 90.6386 449.173 90.8781 450.114C90.479 449.487 90.0599 448.899 89.6209 448.35C89.7406 448.291 86.6874 442.117 89.3215 439.118Z" fill="#263238"/>
<path d="M75.7912 444.116C78.0063 440.471 84.412 442.94 84.412 443.117C84.9308 443.587 85.4696 444.058 86.0284 444.528C85.1304 444.175 82.7357 444.646 79.9819 446.351C77.228 447.938 73.5163 447.468 75.7912 444.116Z" fill="#263238"/>
<path d="M82.6759 433.944C85.0107 430.416 88.3632 435.061 87.1659 438.178C86.0883 441.294 85.7291 443.587 86.0284 444.469C85.5495 443.96 85.0506 443.45 84.5317 442.94C84.7113 442.882 80.6404 437.296 82.6759 433.944Z" fill="#263238"/>
<path d="M70.1633 441.059C71.7797 437.119 78.5447 438.53 78.5447 438.648C79.1433 439.04 79.742 439.432 80.3407 439.824C79.3828 439.589 77.1677 440.412 74.7132 442.588C72.2587 444.587 68.5469 444.763 70.1633 441.059Z" fill="#263238"/>
<path d="M75.2523 429.887C76.9885 426.065 81.0594 430.122 80.4009 433.356C79.8621 436.59 79.922 438.942 80.4009 439.765C79.8022 439.334 79.2036 438.903 78.6049 438.472C78.7845 438.413 73.8155 433.591 75.2523 429.887Z" fill="#263238"/>
<path d="M64.1175 439.001C65.0155 434.826 71.96 435.12 71.96 435.237C72.6385 435.512 73.317 435.786 73.9955 436.061C72.9778 436.002 70.8824 437.237 68.9068 439.706C66.8115 442.117 63.0998 442.94 64.1175 439.001Z" fill="#263238"/>
<path d="M67.1705 427.123C68.2481 423.066 73.0374 426.359 72.9177 429.71C72.9177 433.003 73.3966 435.296 73.9953 436.002C73.3567 435.688 72.6982 435.375 72.0197 435.061C72.1993 434.944 66.3922 431.004 67.1705 427.123Z" fill="#263238"/>
<path d="M68.0079 433.709C68.1276 433.65 62.8593 430.181 59.4469 429.652C56.1543 429.005 54.8971 431.298 55.4359 432.65C55.9747 434.003 58.3095 434.356 60.2851 434.238C62.2008 434.003 68.0079 433.591 68.0079 433.709Z" fill="#263238"/>
<path fill-rule="evenodd" clip-rule="evenodd" d="M67.9485 433.885C67.4097 433.885 62.2013 434.238 60.2855 434.473C59.2678 434.532 55.9153 434.591 55.1969 432.768C54.8975 432.004 55.0772 431.122 55.6758 430.416C56.4541 429.475 57.8909 429.064 59.5073 429.416C62.4408 429.887 67.29 432.709 68.1281 433.474C68.188 433.532 68.2478 433.591 68.2478 433.65C68.2478 433.768 68.2478 433.826 68.1281 433.885C68.0483 433.924 67.9884 433.924 67.9485 433.885ZM56.035 430.71C55.5561 431.239 55.3765 432.004 55.616 432.592C56.0949 433.826 58.3698 434.12 60.2257 434.003C61.3033 433.885 63.2789 433.709 64.8354 433.591C66.0328 433.532 66.811 433.474 67.29 433.474C65.913 432.533 62.1414 430.298 59.4474 429.887C58.3698 429.652 57.5916 429.769 57.0528 430.004C56.514 430.181 56.2146 430.475 56.035 430.71Z" fill="#263238"/>
<path d="M96.6249 461.698C96.7446 461.756 96.9841 461.698 97.044 461.521C104.587 448.232 104.467 431.768 96.8045 418.597C96.6848 418.421 96.5052 418.362 96.3256 418.48C96.146 418.538 96.0861 418.774 96.2058 418.95C103.749 431.945 103.809 448.115 96.4453 461.227C96.3256 461.345 96.3855 461.58 96.5651 461.698C96.5651 461.698 96.585 461.698 96.6249 461.698Z" fill="#263238"/>
<path d="M95.4878 446.88C99.7384 447.409 99.9778 454.289 99.7982 454.289C99.5987 454.994 99.3592 455.7 99.0798 456.406C99.0798 455.406 97.7628 453.407 95.0688 451.584C92.4945 449.702 91.4169 446.174 95.4878 446.88Z" fill="#263238"/>
<path d="M107.76 448.997C111.891 449.702 108.958 454.642 105.545 454.818C102.193 455.112 99.858 455.7 99.1396 456.406C99.4589 455.739 99.7583 455.073 100.038 454.406C100.157 454.465 103.749 448.526 107.76 448.997Z" fill="#263238"/>
<path d="M96.0858 440.588C100.396 440.471 101.773 447.056 101.653 447.174C101.534 447.88 101.414 448.585 101.294 449.291C101.115 448.35 99.4383 446.645 96.5048 445.292C93.5714 443.881 91.955 440.588 96.0858 440.588Z" fill="#263238"/>
<path d="M108.538 440.706C112.789 440.706 110.694 445.998 107.341 446.704C104.108 447.527 101.953 448.526 101.354 449.291C101.554 448.585 101.714 447.88 101.833 447.174C101.953 447.292 104.527 440.882 108.538 440.706Z" fill="#263238"/>
<path d="M95.6076 434.356C99.7983 433.532 102.313 439.765 102.193 439.883C102.233 440.588 102.253 441.294 102.253 442C101.894 441.118 99.918 439.706 96.8049 438.883C93.6919 438.001 91.5367 435.061 95.6076 434.356Z" fill="#263238"/>
<path d="M107.88 432.415C112.071 431.71 110.873 437.296 107.76 438.53C104.707 439.824 102.732 441.176 102.312 442C102.352 441.294 102.372 440.588 102.372 439.883C102.552 439.942 103.929 433.238 107.88 432.415Z" fill="#263238"/>
<path d="M94.0507 428.299C98.0618 426.712 101.594 432.533 101.474 432.65C101.634 433.356 101.774 434.042 101.893 434.708C101.414 433.885 99.2591 432.827 96.0263 432.592C92.7935 432.18 90.1594 429.593 94.0507 428.299Z" fill="#263238"/>
<path d="M105.845 424.301C109.856 422.948 109.616 428.652 106.743 430.357C103.929 432.18 102.253 433.826 101.953 434.708C101.874 434.003 101.794 433.297 101.714 432.592C101.893 432.65 102.133 425.771 105.845 424.301Z" fill="#263238"/>
<path d="M91.4762 422.478C95.1879 420.302 99.6779 425.477 99.5582 425.594C99.8376 426.261 100.097 426.927 100.336 427.594C99.7378 426.888 97.403 426.182 94.1702 426.418C90.9374 426.535 87.8842 424.477 91.4762 422.478Z" fill="#263238"/>
<path d="M102.432 416.657C106.144 414.599 106.922 420.302 104.348 422.478C101.953 424.771 100.517 426.653 100.397 427.594C100.197 426.888 99.9977 426.202 99.7981 425.536C99.9777 425.536 98.96 418.715 102.432 416.657Z" fill="#263238"/>
<path d="M98.0616 421.714C98.1813 421.714 97.2235 415.598 95.3077 412.776C93.5117 409.954 90.8776 410.6 90.2789 411.894C89.6204 413.246 90.9375 415.128 92.3743 416.48C93.9308 417.715 98.1215 421.596 98.0616 421.714Z" fill="#263238"/>
<path fill-rule="evenodd" clip-rule="evenodd" d="M97.8223 421.772C97.5229 421.42 93.6915 417.833 92.1948 416.657C91.4764 416.01 89.1416 413.599 90.0396 411.835C90.3988 411.13 91.1771 410.6 92.1349 410.542C93.3921 410.483 94.5895 411.247 95.4875 412.658C97.1039 415.069 98.3012 420.479 98.3012 421.655C98.3012 421.714 98.3012 421.772 98.2413 421.831C98.1815 421.89 98.1216 421.949 98.0019 421.89C98.0019 421.89 97.9819 421.89 97.942 421.89C97.9021 421.89 97.8622 421.851 97.8223 421.772ZM92.1349 411.012C91.4165 411.071 90.758 411.482 90.4587 412.012C89.86 413.188 91.1771 415.01 92.4941 416.304C93.3323 416.951 94.8289 418.303 95.9664 419.362C96.8644 420.185 97.4032 420.655 97.7624 421.008C97.5229 419.362 96.5651 415.128 95.0684 412.894C94.5296 412.012 93.8711 411.541 93.3323 411.247C92.8533 411.071 92.4343 411.012 92.1349 411.012Z" fill="#263238"/>
<path d="M861.781 461.992H42.9844" stroke="#263238" stroke-width="2" stroke-linecap="round" stroke-linejoin="round"/>
<path d="M662.305 330.926H244.316C217.914 330.926 196.542 309.876 196.542 284.004V85.6716C196.542 59.7408 217.914 38.7492 244.316 38.7492H662.305C688.646 38.7492 710.078 59.7408 710.078 85.6716V284.004C710.078 309.876 688.646 330.926 662.305 330.926Z" fill="white"/>
<path d="M662.424 45.6288H243.657C220.489 45.6288 201.69 64.1508 201.69 86.9064V158.642V213.562V282.534C201.69 305.29 220.489 323.812 243.657 323.812H662.424C685.653 323.812 704.451 305.29 704.451 282.534V86.9064C704.451 64.1508 685.653 45.6288 662.424 45.6288Z" fill="#D6D6D6"/>
<path fill-rule="evenodd" clip-rule="evenodd" d="M510.543 154.232L539.518 189.865L575.079 120.834L534.31 84.1428C533.472 83.3784 533.172 82.2024 533.591 81.144L547.48 45.6288H553.407L539.398 81.3792L577.653 115.836L588.01 95.6676C588.489 94.7856 589.447 94.1976 590.465 94.1976H704.451V99.6072H643.746L667.154 189.336C667.194 189.571 667.214 189.787 667.214 189.983C667.214 190.865 666.795 191.629 666.076 192.158L587.711 249.077L648.416 323.753H641.411L507.07 158.642H491.984L461.332 323.753H455.705L468.696 254.016H388.175V253.957L343.036 323.753H336.51L361.714 284.827C353.333 282.534 332.798 276.007 312.983 261.248C289.994 244.196 264.072 212.621 269.519 158.642H201.69V153.233H370.395V95.1972L260.06 45.6288H273.291L374.286 91.0224C375.244 91.4928 375.902 92.4336 375.902 93.492V153.233H508.387C509.226 153.233 510.004 153.586 510.543 154.232ZM543.29 194.51L584.238 244.843L661.347 188.924L638.059 99.6072H592.201L543.29 194.51ZM449.778 158.642L391.588 248.606H469.654L486.356 158.642H449.778ZM275.027 158.642C270.657 200.273 284.546 233.377 316.275 256.956C336.69 272.126 358.302 278.359 364.827 280.006L443.252 158.642H275.027Z" fill="white"/>
<path d="M451.753 45.6288V53.7432L503.777 74.2056V115.072L452.89 93.492V125.244H403.201V77.5572L340.102 45.6288H451.753Z" fill="#C4C4C4"/>
<path d="M284.725 272.773V313.345H250.302V272.773H284.725Z" fill="#C4C4C4"/>
<path d="M275.087 236.846V266.011H250.302V236.846H275.087Z" fill="#C4C4C4"/>
<path d="M359.858 267.775L425.831 167.462H287.479C287.479 167.462 280.415 239.198 359.858 267.775Z" fill="#C4C4C4"/>
<path d="M266.346 209.269V228.144H250.302V209.269H266.346Z" fill="#C4C4C4"/>
<path d="M573.701 174.107L599.863 210.622L638.357 190.336L634.226 117.365L598.486 113.308L586.094 141.649L605.371 153.821L598.486 165.992L577.832 155.173L573.701 174.107Z" fill="#C4C4C4"/>
<path d="M496.055 291.06H570.409L587.351 323.812H494.498L496.055 291.06Z" fill="#C4C4C4"/>
<path d="M542.211 236.552H498.688L496.533 281.946H565.739L542.211 236.552Z" fill="#C4C4C4"/>
<path d="M498.988 229.732H538.68L524.611 202.507H500.305L498.988 229.732Z" fill="#C4C4C4"/>
<path d="M274.01 48.2748L275.626 48.9804" stroke="#263238" stroke-width="4" stroke-linejoin="round"/>
<path d="M278.919 50.5092L369.557 91.6692" stroke="#263238" stroke-width="4" stroke-linejoin="round" stroke-dasharray="6.07 6.07"/>
<path d="M371.233 92.4336L372.85 93.1392V94.9032" stroke="#263238" stroke-width="4" stroke-linejoin="round"/>
<path d="M372.85 98.3724V152.174" stroke="#263238" stroke-width="4" stroke-linejoin="round" stroke-dasharray="5.9 5.9"/>
<path d="M372.85 153.88V155.644H371.054" stroke="#263238" stroke-width="4" stroke-linejoin="round"/>
<path d="M367.462 155.644H275.926" stroke="#263238" stroke-width="4" stroke-linejoin="round" stroke-dasharray="6 6"/>
<path d="M274.13 155.644H272.334C272.334 155.644 272.214 156.232 272.034 157.408" stroke="#263238" stroke-width="4" stroke-linejoin="round"/>
<path d="M271.496 160.818C269.64 175.106 267.844 215.972 301.609 248.489C325.016 271.068 353.453 279.712 363.211 282.122" stroke="#263238" stroke-width="4" stroke-linejoin="round" stroke-dasharray="5.94 5.94"/>
<path d="M364.947 282.534C366.085 282.769 366.683 282.887 366.683 282.887L367.641 281.417" stroke="#263238" stroke-width="4" stroke-linejoin="round"/>
<path d="M369.617 278.359L447.085 158.466" stroke="#263238" stroke-width="4" stroke-linejoin="round" stroke-dasharray="6.12 6.12"/>
<path d="M448.103 156.937L449.06 155.467H450.856" stroke="#263238" stroke-width="4" stroke-linejoin="round"/>
<path d="M454.448 155.467H503.12" stroke="#263238" stroke-width="4" stroke-linejoin="round" stroke-dasharray="6.02 6.02"/>
<path d="M504.916 155.467H506.712L507.849 156.82" stroke="#263238" stroke-width="4" stroke-linejoin="round"/>
<path d="M510.064 159.524L592.381 260.543" stroke="#263238" stroke-width="4" stroke-linejoin="round" stroke-dasharray="5.87 5.87"/>
<path d="M593.459 261.895L594.596 263.248" stroke="#263238" stroke-width="4" stroke-linejoin="round"/>
<path d="M274.369 161.524L260.241 171.637L247.309 161.818C241.502 157.702 237.671 150.998 237.671 143.472C237.671 131.006 247.908 120.952 260.6 120.952C273.232 120.952 283.469 131.006 283.469 143.472C283.469 150.881 280.056 157.408 274.369 161.524Z" fill="white" stroke="#263238" stroke-width="2" stroke-linecap="round" stroke-linejoin="round"/>
<path d="M240.484 143.296C240.484 148.117 242.22 152.527 245.094 155.938C248.806 160.289 254.373 163.111 260.6 163.111C266.347 163.111 271.555 160.759 275.207 156.937C278.679 153.409 280.775 148.588 280.775 143.296C280.775 132.359 271.735 123.48 260.6 123.48C249.464 123.48 240.484 132.359 240.484 143.296Z" fill="white" stroke="#263238" stroke-width="2" stroke-linejoin="round"/>
<path d="M260.6 163.111C265.569 163.111 270.119 161.347 273.651 158.407C272.992 151.704 267.245 146.471 260.3 146.471C253.476 146.471 247.848 151.41 246.95 157.878C250.542 161.112 255.332 163.111 260.6 163.111Z" fill="#263238" stroke="#263238" stroke-width="2" stroke-linejoin="round"/>
<path d="M269.16 137.533C269.16 142.355 265.149 146.236 260.3 146.236C255.391 146.236 251.38 142.355 251.38 137.533C251.38 132.712 255.391 128.831 260.3 128.831C265.149 128.831 269.16 132.712 269.16 137.533Z" fill="#263238" stroke="#263238" stroke-width="2" stroke-linejoin="round"/>
<path d="M436.848 220.147L422.719 230.261L409.848 220.441H409.788C403.981 216.325 400.149 209.622 400.149 202.096C400.149 189.63 410.446 179.575 423.078 179.575C435.71 179.575 446.007 189.63 446.007 202.096C446.007 209.504 442.535 216.031 436.848 220.147Z" fill="white" stroke="#263238" stroke-width="2" stroke-linecap="round" stroke-linejoin="round"/>
<path d="M402.963 201.919C402.963 206.741 404.699 211.151 407.573 214.561C411.284 218.912 416.852 221.735 423.138 221.735C428.885 221.735 434.034 219.324 437.745 215.561C441.158 212.033 443.253 207.211 443.253 201.919C443.253 190.982 434.273 182.104 423.138 182.104C412.003 182.104 402.963 190.982 402.963 201.919Z" fill="white" stroke="#263238" stroke-width="2" stroke-linejoin="round"/>
<path d="M423.138 221.735C428.107 221.735 432.657 219.971 436.129 217.031C435.47 210.328 429.783 205.094 422.779 205.094C415.954 205.094 410.386 210.034 409.488 216.502C413.08 219.736 417.87 221.735 423.138 221.735Z" fill="#263238" stroke="#263238" stroke-width="2" stroke-linejoin="round"/>
<path d="M431.639 196.157C431.639 200.978 427.688 204.859 422.779 204.859C417.87 204.859 413.919 200.978 413.919 196.157C413.919 191.335 417.87 187.454 422.779 187.454C427.688 187.454 431.639 191.335 431.639 196.157Z" fill="#263238" stroke="#263238" stroke-width="2" stroke-linejoin="round"/>
<path d="M538.86 213.738C537.543 215.09 536.466 216.737 536.466 217.266C536.526 217.795 543.111 226.792 544.069 227.85C544.967 228.967 547.541 231.084 547.541 231.084L565.681 252.781C565.082 253.016 563.585 253.722 563.286 253.84C562.927 254.075 563.765 254.663 564.723 254.78C565.681 254.839 567.118 254.486 567.118 254.486L577.953 266.893C577.953 266.893 581.306 267.952 583.88 267.07C586.454 266.188 590.945 263.365 594.596 259.955C598.308 256.544 599.446 255.486 599.446 255.486C599.446 255.486 600.164 254.78 600.344 254.486C600.463 254.134 601.78 248.548 601.122 247.254C600.523 246.019 599.984 245.725 599.984 245.725C599.984 245.725 591.603 235.612 591.184 235.082C591.184 235.082 591.164 235.082 591.124 235.082C591.364 234.612 592.082 233.201 592.142 232.672C592.202 232.084 591.663 231.143 591.364 231.378C591.124 231.554 589.927 233.142 589.687 233.436L571.069 210.974C571.069 210.974 568.794 207.564 567.297 205.8C565.86 204.095 560.832 198.744 559.814 198.509C558.856 198.215 558.018 198.685 557.778 198.862C557.599 198.979 551.313 202.978 549.158 204.506C547.002 206.035 540.118 212.386 538.86 213.738Z" fill="#263238" stroke="#263238" stroke-width="2" stroke-linecap="round" stroke-linejoin="round"/>
<path d="M586.813 234.142H588.25L577.893 221.617L574.601 222.558C574.601 222.558 584.658 233.318 586.813 234.142Z" fill="white"/>
<path d="M572.805 220.618L575.739 219.206L564.604 207.094C564.604 207.094 565.502 211.739 565.921 212.268C566.4 212.797 572.805 220.618 572.805 220.618Z" fill="white"/>
<path d="M543.051 219.148C543.051 219.148 543.949 217.09 545.984 215.384C547.96 213.62 557.179 205.976 558.077 205.682C559.035 205.33 561.071 205.506 561.071 205.506C561.071 205.506 559.993 202.625 558.975 201.684C557.958 200.743 556.521 200.978 556.102 201.155C555.742 201.39 547.72 207.094 545.625 209.152C543.53 211.151 539.997 214.561 539.758 215.09C539.519 215.561 539.998 217.501 540.476 217.913C541.015 218.383 543.051 219.148 543.051 219.148Z" fill="white"/>
<path d="M544.428 223.264C544.428 223.264 547.96 224.969 548.499 225.38C549.037 225.792 556.162 233.965 556.162 233.965L554.006 236.435L546.882 227.556L544.428 223.264Z" fill="white"/>
<path d="M556.103 238.669L557.779 235.906C557.779 235.906 561.79 241.256 562.688 242.726C563.586 244.138 567.058 249.9 567.058 249.9L566.759 251.488L556.103 238.669Z" fill="white"/>
<path d="M564.663 243.491C564.663 243.491 576.217 235.788 580.408 230.437L590.825 239.728C590.825 239.728 592.142 241.256 592.202 241.609C592.202 241.903 592.202 242.668 592.202 242.668C592.202 242.668 589.568 248.489 585.916 251.311C582.324 254.134 576.217 256.78 575.559 256.897C574.9 257.015 573.763 256.603 573.763 256.603L572.087 255.662L564.663 243.491Z" fill="white"/>
<path d="M595.375 243.667C595.375 243.667 597.59 248.842 597.71 250.958C597.77 253.016 597.41 254.192 597.41 254.192C597.41 254.192 599.147 252.252 599.266 251.076C599.386 249.9 599.326 248.665 598.907 247.783C598.488 246.901 595.375 243.667 595.375 243.667Z" fill="white"/>
<path d="M574.96 260.131C574.96 260.131 579.45 263.248 580.887 263.777C582.264 264.247 584.718 264.247 584.718 264.247C584.718 264.247 582.563 265.364 581.785 265.423C581.066 265.423 578.253 264.482 577.714 264.071C577.115 263.659 575.08 260.66 574.96 260.131Z" fill="white"/>
<path d="M407.991 331.632C407.991 331.632 396.496 360.503 393.743 369.617C390.989 378.79 389.911 392.725 389.911 392.725L477.736 401.486C477.736 401.486 492.822 397.606 491.744 389.55C490.607 381.436 480.789 366.442 467.079 353.506C453.37 340.57 432.596 329.868 426.011 329.868C419.485 329.868 407.991 331.632 407.991 331.632Z" fill="#757575" stroke="#263238" stroke-width="2" stroke-linecap="round" stroke-linejoin="round"/>
<path d="M715.826 362.502L721.034 385.61L701.518 389.55L715.826 362.502Z" fill="#263238" stroke="#263238" stroke-width="2" stroke-linecap="round" stroke-linejoin="round"/>
<path fill-rule="evenodd" clip-rule="evenodd" d="M775.452 441.941C774.794 449.35 772.938 461.11 771.022 462.344C769.107 463.579 711.754 475.339 711.754 475.339L697.865 389.256C697.865 389.256 715.526 349.625 723.069 343.392C730.672 337.218 748.932 334.748 748.932 334.748L765.335 376.261C765.335 376.261 771.022 376.849 774.794 387.374C778.566 397.958 776.051 434.473 775.452 441.941ZM756.295 377.731L744.382 340.099L732.468 342.804C732.468 342.804 726.781 345.332 723.309 349.801C719.896 354.329 704.93 385.904 704.93 385.904L756.295 377.731Z" fill="#AD304B" stroke="#263238" stroke-width="2" stroke-linecap="round" stroke-linejoin="round"/>
<path d="M704.391 388.433L721.034 385.61C721.034 385.61 727.619 373.204 729.594 371.498C731.63 369.852 734.504 368.147 739.353 369.264C744.262 370.381 754.559 376.026 754.02 379.672C753.421 383.376 752.583 384.493 747.135 385.316C741.688 386.14 727.32 386.14 727.32 386.14C727.32 386.14 723.608 392.078 722.71 393.196C721.872 394.313 707.803 398.84 707.803 398.84C707.803 398.84 706.127 394.313 704.391 388.433Z" fill="#263238" stroke="#263238" stroke-width="2" stroke-linecap="round" stroke-linejoin="round"/>
<path d="M647.937 514.441C647.937 514.441 644.524 517.44 642.908 518.616C641.291 519.851 638.657 522.144 635.963 523.026C633.269 523.908 631.832 524.437 632.012 525.848C632.192 527.26 632.192 528.671 633.09 528.847C633.988 529.024 666.256 528.847 666.256 528.847C666.256 528.847 667.154 527.436 666.974 524.261C666.795 521.086 665.717 518.616 665.717 518.616C665.717 518.616 657.455 516.382 653.863 514.441C650.271 512.501 647.937 514.441 647.937 514.441Z" fill="white" stroke="#263238" stroke-width="2" stroke-linecap="round" stroke-linejoin="round"/>
<path d="M666.795 527.26H632.132C632.252 528.083 632.491 528.73 633.09 528.847C633.988 529.024 666.256 528.847 666.256 528.847C666.256 528.847 666.555 528.377 666.795 527.26Z" fill="white" stroke="#263238" stroke-width="2" stroke-linecap="round" stroke-linejoin="round"/>
<path d="M637.4 394.195C637.4 394.195 635.065 409.013 637.4 424.36C639.735 439.706 642.189 450.643 642.189 450.643C642.189 450.643 645.781 465.931 646.141 470.87C646.5 475.81 649.912 501.917 649.733 502.446C649.553 502.975 649.194 504.21 649.194 505.092C649.194 505.974 646.859 507.209 647.218 508.267C647.577 509.326 647.937 514.441 647.937 514.441C647.937 514.441 652.067 513.736 653.863 514.441C655.659 515.147 663.741 517.91 663.741 517.91L665.717 518.616C665.717 518.616 667.872 517.087 667.872 514.618C667.872 512.148 664.639 509.326 664.639 509.326C664.639 509.326 666.795 508.444 666.974 507.562C667.154 506.68 666.076 503.504 666.076 502.975C666.076 502.446 665.717 497.154 665.717 496.096C665.717 495.037 665.897 481.631 665.897 480.043C665.897 478.456 664.28 454.171 664.28 454.171L662.484 436.531C662.484 436.531 666.795 456.406 668.591 462.756C670.387 469.106 675.595 495.743 675.775 496.625C675.954 497.507 676.673 504.386 676.493 504.916C676.313 505.445 674.338 506.68 674.517 507.385C674.697 508.091 675.954 516.911 675.954 516.911L688.885 517.91C688.885 517.91 690.322 515.323 691.041 513.383C691.759 511.442 690.502 509.678 690.502 508.973C690.502 508.267 691.579 508.444 691.22 505.621C690.861 502.799 690.502 500.506 690.502 500.506C690.502 500.506 689.604 499.094 689.424 494.155C689.245 489.216 692.118 475.633 690.143 467.872C688.167 460.11 685.832 453.642 685.653 445.175C685.473 436.708 685.473 420.832 684.755 416.598C684.036 412.364 682.899 399.134 682.899 399.134L682.42 397.194L637.4 394.195Z" fill="#8C8C8C" stroke="#263238" stroke-width="2" stroke-linecap="round" stroke-linejoin="round"/>
<path d="M652.786 418.538L659.611 421.714L661.946 434.591" stroke="#263238" stroke-width="2" stroke-linecap="round" stroke-linejoin="round"/>
<path d="M677.391 514.265C677.391 514.265 676.134 518.616 674.876 520.733C673.619 522.85 671.644 524.084 671.105 525.319C670.566 526.554 670.746 528.847 670.746 528.847H689.963C689.963 528.847 691.4 527.083 691.4 522.85C691.4 518.616 689.783 516.558 688.346 514.088C686.91 511.619 682.06 509.855 677.391 514.265Z" fill="white" stroke="#263238" stroke-width="2" stroke-linecap="round" stroke-linejoin="round"/>
<path d="M690.981 526.495L690.682 526.378H670.806C670.626 527.554 670.746 528.847 670.746 528.847H689.963C689.963 528.847 690.562 528.142 690.981 526.495Z" fill="white" stroke="#263238" stroke-width="2" stroke-linecap="round" stroke-linejoin="round"/>
<path d="M649.733 318.461C649.733 318.461 646.141 322.048 643.327 323.576C640.513 325.105 635.904 326.458 635.066 328.104C634.227 329.809 633.21 341.275 634.467 347.214C635.724 353.153 637.281 357.269 637.281 357.269L638.298 379.26L636.742 396.136C636.742 396.136 653.744 398.311 664.58 399.546C675.416 400.781 682.899 399.134 682.899 399.134C682.899 399.134 683.438 389.08 683.558 383.788C683.737 378.554 683.977 353.8 683.977 353.8L692.597 367.912C692.597 367.912 698.584 371.734 708.223 365.56C710.976 363.854 700.5 352.8 699.781 349.331C699.063 345.92 694.573 338.512 694.573 338.512C694.573 338.512 690.921 327.692 688.107 324.929C685.294 322.165 681.462 321.518 677.391 320.93C673.32 320.401 666.555 317.638 666.555 317.638L649.733 318.461Z" fill="#AD304B" stroke="#263238" stroke-width="2" stroke-linecap="round" stroke-linejoin="round"/>
<path d="M698.943 353.329C698.943 353.329 694.513 353.917 693.315 361.444" stroke="#263238" stroke-width="2" stroke-linecap="round" stroke-linejoin="round"/>
<path d="M690.502 356.269C690.502 356.269 693.495 353.329 696.968 353.329" stroke="#263238" stroke-width="2" stroke-linecap="round" stroke-linejoin="round"/>
<path d="M637.76 291.06C637.76 291.06 638.119 303.055 638.598 304.996C639.017 306.936 642.31 310.993 643.746 312.816C645.123 314.639 648.057 315.109 648.416 315.109C648.775 315.109 649.733 316.52 649.733 318.461C649.733 320.401 648.895 320.754 649.015 326.399C649.134 332.044 649.913 336.865 649.913 336.865C649.913 336.865 653.325 334.69 659.192 328.457C665.059 322.283 666.556 317.638 666.556 317.638C666.556 317.638 663.981 315.344 663.203 312.698C662.365 310.052 662.485 303.408 662.485 303.408C662.485 303.408 666.675 300.174 666.915 298.292C667.154 296.47 665.418 293 665.418 293C665.418 293 663.443 286.121 661.168 282.652C658.953 279.182 658.593 277.477 651.23 279.418C643.866 281.417 641.292 281.828 638.897 283.592C636.562 285.298 636.203 287.356 636.203 287.356L637.76 291.06Z" fill="white" stroke="#263238" stroke-width="2" stroke-linecap="round" stroke-linejoin="round"/>
<path d="M648.416 315.109C648.416 315.109 650.631 314.874 651.948 314.521C653.205 314.227 655.001 313.522 655.001 313.522L649.733 318.461L648.416 315.109Z" fill="#263238" stroke="#263238" stroke-width="2" stroke-linecap="round" stroke-linejoin="round"/>
<path d="M642.01 304.172C642.01 304.172 642.848 305.407 644.045 304.996C645.183 304.525 645.841 304.172 645.841 304.172" stroke="#263238" stroke-width="2" stroke-linecap="round" stroke-linejoin="round"/>
<path d="M645.243 307.524C645.243 307.524 649.494 308.112 651.948 304.643" stroke="#263238" stroke-width="2" stroke-linecap="round" stroke-linejoin="round"/>
<path d="M646.8 295.117C646.8 295.117 650.512 294.059 652.547 295.117" stroke="#263238" stroke-width="2" stroke-linecap="round" stroke-linejoin="round"/>
<path d="M641.831 295.529C641.831 295.529 639.855 294.294 638.718 295.764" stroke="#263238" stroke-width="2" stroke-linecap="round" stroke-linejoin="round"/>
<path d="M640.753 298.351C640.813 299.116 640.573 299.762 640.154 299.821C639.735 299.821 639.316 299.292 639.256 298.528C639.137 297.763 639.376 297.116 639.795 297.058C640.214 296.999 640.633 297.587 640.753 298.351Z" fill="#263238"/>
<path d="M649.074 297.998C649.194 298.763 648.954 299.41 648.535 299.468C648.116 299.527 647.697 298.939 647.637 298.175C647.518 297.41 647.757 296.764 648.176 296.705C648.595 296.646 649.014 297.234 649.074 297.998Z" fill="#263238"/>
<path d="M654.762 283.945C654.762 283.945 650.751 286.944 649.494 287.179C648.177 287.356 643.627 285.886 641.951 285.768C640.334 285.65 637.281 288.061 637.281 288.061L637.76 291.06C637.76 291.06 633.27 290.002 632.372 288.296C631.414 286.591 634.587 284.298 634.467 283.71C634.347 283.122 632.731 280.946 633.869 280.241C635.066 279.535 640.214 277.948 640.214 277.948C640.214 277.948 642.908 272.42 644.764 272.303C646.68 272.185 650.152 272.891 650.152 272.891C650.152 272.891 652.068 271.127 654.283 271.48C656.498 271.832 659.791 275.89 659.791 275.89C659.791 275.89 664.7 275.419 665.658 277.477C666.556 279.535 667.514 282.299 666.795 284.474C666.137 286.709 665.418 291.295 665.418 291.295V293C665.418 293 663.443 293.353 662.485 294.176C661.527 295 661.647 295.646 660.928 296.234C660.27 296.822 659.911 296.822 659.432 296.587C658.953 296.352 658.713 295.646 658.474 294.294C658.234 292.883 658.055 292.589 657.097 292.236C656.139 291.883 654.882 291.178 653.924 290.119C652.966 289.12 651.829 288.179 652.547 287.238C653.205 286.356 654.762 283.945 654.762 283.945Z" fill="#263238" stroke="#263238" stroke-width="2" stroke-linecap="round" stroke-linejoin="round"/>
<path d="M678.768 346.626L683.977 353.8L675.296 350.918" stroke="#263238" stroke-width="2" stroke-linecap="round" stroke-linejoin="round"/>
<path d="M445.348 397.312C444.929 395.959 459.237 398.135 459.237 398.135C459.237 398.135 463.787 378.437 462.529 376.32C461.272 374.203 449.538 370.146 449.538 370.146L422.299 368.735C422.299 368.735 410.565 373.615 410.386 374.85C410.266 375.497 402.663 384.787 399.37 392.196L445.348 397.312Z" fill="#B3B3B3" stroke="#263238" stroke-width="2" stroke-linecap="round" stroke-linejoin="round"/>
<path d="M427.986 367.676C427.986 367.676 426.25 369.382 426.25 374.144C426.25 378.907 429.363 385.022 429.363 385.022L440.199 379.436L452.771 385.787C452.771 385.787 454.028 374.027 449.538 370.146C445.048 366.324 430.501 364.325 427.986 367.676Z" fill="white" stroke="#263238" stroke-width="2" stroke-linecap="round" stroke-linejoin="round"/>
<path d="M429.842 369.852C429.842 369.852 432.177 376.32 434.511 380.73C436.906 385.081 442.294 388.315 442.294 388.315C442.294 388.315 444.988 379.554 445.287 375.144C445.587 370.734 444.988 368.382 444.988 368.382L429.842 369.852Z" fill="white" stroke="#263238" stroke-width="2" stroke-linecap="round" stroke-linejoin="round"/>
<path d="M421.581 358.092C421.581 358.092 422.598 367.735 423.556 368.558C424.574 369.44 429.842 369.852 429.842 369.852L441.277 370.558C442.414 368.441 443.133 356.387 439.122 347.155C435.111 337.865 430.142 336.336 429.124 338.041C429.124 338.041 423.317 345.862 423.556 347.567C423.856 349.213 424.454 350.095 424.155 350.918C423.856 351.742 420.443 353.329 420.024 354.858C419.605 356.387 421.581 358.092 421.581 358.092Z" fill="white" stroke="#263238" stroke-width="2" stroke-linecap="round" stroke-linejoin="round"/>
<path d="M424.274 359.915C424.274 359.915 427.447 359.915 429.004 358.504" stroke="#263238" stroke-width="2" stroke-linecap="round" stroke-linejoin="round"/>
<path d="M426.729 351.212C426.729 351.212 428.286 350.801 429.304 351.742" stroke="#263238" stroke-width="2" stroke-linecap="round" stroke-linejoin="round"/>
<path d="M425.712 348.096C425.712 348.096 428.406 345.626 430.022 348.978" stroke="#263238" stroke-width="2" stroke-linecap="round" stroke-linejoin="round"/>
<path d="M429.124 338.041C429.124 338.041 430.262 347.567 433.554 354.446C436.847 361.267 438.403 363.384 438.403 363.384C438.403 363.384 438.403 368.852 436.727 370.381C434.991 371.969 433.135 371.792 433.135 371.792C433.135 371.792 431.16 374.615 437.565 375.438C443.971 376.261 445.707 373.321 447.982 373.086C450.257 372.792 451.395 373.204 451.395 373.204C451.395 373.204 451.993 371.498 451.514 369.676C451.095 367.853 450.856 366.5 450.856 366.5C450.856 366.5 455.106 361.561 454.987 355.975C454.807 350.389 456.543 347.155 453.37 340.57C450.257 333.984 433.734 332.867 430.561 332.69C427.448 332.573 427.029 332.867 425.592 335.101C424.155 337.336 420.024 340.687 420.024 343.216C420.024 345.744 424.155 350.918 424.155 350.918L423.557 347.567C423.557 347.567 427.029 341.804 429.124 338.041Z" fill="#263238" stroke="#263238" stroke-width="2" stroke-linecap="round" stroke-linejoin="round"/>
<path d="M533.232 495.684C398.532 491.45 289.275 501.564 289.275 518.204C289.275 525.26 308.732 532.316 341.359 538.49C311.905 539.078 290.413 540.901 290.413 543.018C290.413 545.664 322.442 547.781 361.953 547.781C376.202 547.781 389.552 547.546 400.687 547.016C438.882 551.309 484.381 554.484 533.232 556.013C667.932 560.188 777.189 550.133 777.189 533.434C777.189 516.793 667.932 499.859 533.232 495.684Z" fill="#263238" stroke="#263238" stroke-width="2" stroke-linecap="round" stroke-linejoin="round"/>
<path d="M295.502 474.104C295.502 474.104 298.435 480.396 300.53 482.572C302.686 484.747 340.94 494.038 340.94 494.038L464.924 520.674L479.951 519.086L532.514 520.733C532.514 520.733 542.99 495.566 531.496 470.753C520.061 445.998 462.889 436.296 446.665 441.294C430.501 446.351 392.665 462.638 365.426 453.701C338.186 444.822 316.455 427.358 307.415 429.71C298.315 432.004 294.005 446.351 294.005 452.584C294.005 458.758 295.502 474.104 295.502 474.104Z" fill="#263238" stroke="#263238" stroke-width="2" stroke-linecap="round" stroke-linejoin="round"/>
<path d="M562.028 508.62C560.95 482.983 543.529 462.227 523.114 462.168H500.964L501.383 471.341C492.702 479.749 487.434 493.214 488.092 508.385C488.751 523.614 495.097 537.079 504.496 545.546L504.855 554.837H527.006C547.48 554.896 563.105 534.198 562.028 508.62Z" fill="#263238" stroke="#263238" stroke-width="2" stroke-linecap="round" stroke-linejoin="round"/>
<path d="M539.937 508.62C541.015 534.198 525.33 554.896 504.855 554.837C484.441 554.778 467.02 534.022 465.942 508.385C464.864 482.807 480.549 462.109 500.964 462.168C521.379 462.227 538.8 482.983 539.937 508.62Z" fill="#878787" stroke="#263238" stroke-width="2" stroke-linecap="round" stroke-linejoin="round"/>
<path d="M531.555 524.261C531.915 523.124 532.234 521.948 532.513 520.733C532.753 519.557 532.972 518.342 533.172 517.087C533.531 514.324 533.651 511.501 533.531 508.561C533.292 502.387 531.855 496.507 529.52 491.274C529.52 491.235 529.5 491.196 529.46 491.156C528.941 490.02 528.382 488.902 527.784 487.805C527.744 487.726 527.724 487.668 527.724 487.628C527.085 486.531 526.427 485.492 525.748 484.512C525.748 484.473 525.728 484.414 525.688 484.336C519.702 475.692 510.901 470.106 501.323 470.106C493.061 470.106 485.817 474.104 480.609 480.69C480.25 481.16 479.91 481.611 479.591 482.042C479.272 482.513 478.953 482.983 478.633 483.454C478.314 483.924 478.015 484.414 477.735 484.924C477.456 485.433 477.177 485.923 476.897 486.394C476.897 486.433 476.897 486.452 476.897 486.452C476.618 486.962 476.378 487.472 476.179 487.981C476.139 488.02 476.119 488.06 476.119 488.099C475.879 488.569 475.66 489.059 475.46 489.569C475.42 489.608 475.4 489.667 475.4 489.745C475.201 490.216 475.001 490.706 474.802 491.215C474.802 491.294 474.782 491.352 474.742 491.392C474.582 491.901 474.423 492.391 474.263 492.862C474.223 492.979 474.183 493.077 474.143 493.156C474.024 493.626 473.904 494.096 473.784 494.567C473.744 494.724 473.704 494.861 473.664 494.978C473.545 495.41 473.445 495.86 473.365 496.331C473.325 496.488 473.285 496.644 473.245 496.801C473.165 497.232 473.086 497.683 473.006 498.154C472.966 498.31 472.926 498.467 472.886 498.624C472.806 499.094 472.746 499.545 472.706 499.976C472.667 500.172 472.627 500.368 472.587 500.564C472.547 500.996 472.507 501.427 472.467 501.858C472.467 502.054 472.447 502.27 472.407 502.505C472.367 502.936 472.347 503.367 472.347 503.798C472.307 503.994 472.287 504.21 472.287 504.445C472.287 504.916 472.287 505.366 472.287 505.798C472.248 506.033 472.228 506.248 472.228 506.444C472.228 507.111 472.248 507.777 472.287 508.444C472.327 509.228 472.387 510.031 472.467 510.854C472.467 511.05 472.487 511.246 472.527 511.442C472.607 512.109 472.687 512.795 472.766 513.5C472.806 513.579 472.826 513.677 472.826 513.794C473.106 515.48 473.445 517.126 473.844 518.734C475.939 526.73 480.07 533.669 485.338 538.667C485.378 538.745 485.438 538.804 485.518 538.843C486.157 539.47 486.815 540.058 487.494 540.607C487.573 540.646 487.633 540.666 487.673 540.666C492.582 544.606 498.389 546.899 504.556 546.899C510.722 546.899 516.349 544.606 521.019 540.725C521.019 540.725 521.019 540.705 521.019 540.666C525.748 536.726 529.4 531.023 531.555 524.261Z" fill="white" stroke="#263238" stroke-width="2" stroke-linecap="round" stroke-linejoin="round"/>
<path d="M530.059 509.737C529.88 505.268 528.982 501.035 527.485 497.154L515.332 504.622C515.811 506.209 516.17 507.914 516.23 509.737C516.23 509.972 516.23 510.227 516.23 510.502L530.059 512.677C530.099 511.697 530.099 510.717 530.059 509.737Z" fill="#263238" stroke="#263238" stroke-width="2" stroke-linecap="round" stroke-linejoin="round"/>
<path d="M508.508 496.037C509.765 496.684 510.902 497.624 511.92 498.742L520.481 485.806C517.548 482.63 514.016 480.22 510.184 478.808L508.508 496.037Z" fill="#263238" stroke="#263238" stroke-width="2" stroke-linecap="round" stroke-linejoin="round"/>
<path d="M514.494 518.146C513.895 519.38 513.117 520.439 512.219 521.38L519.283 536.844C522.636 534.08 525.389 530.258 527.305 525.79L514.494 518.146Z" fill="#263238" stroke="#263238" stroke-width="2" stroke-linecap="round" stroke-linejoin="round"/>
<path d="M493.78 501.682L481.388 493.214C479.592 497.33 478.514 502.152 478.395 507.268L492.284 507.62C492.463 505.445 492.942 503.446 493.78 501.682Z" fill="#263238" stroke="#263238" stroke-width="2" stroke-linecap="round" stroke-linejoin="round"/>
<path d="M498.031 496.507C499.049 495.802 500.126 495.331 501.323 495.037L499.288 477.809C494.918 478.573 490.966 480.749 487.674 483.924L498.031 496.507Z" fill="#263238" stroke="#263238" stroke-width="2" stroke-linecap="round" stroke-linejoin="round"/>
<path d="M506.172 524.555C505.773 524.633 505.334 524.672 504.855 524.672C503.598 524.672 502.401 524.378 501.203 523.967L494.438 538.784C497.851 540.725 501.622 541.842 505.574 541.901C506.651 541.901 507.709 541.803 508.747 541.607L506.172 524.555Z" fill="#263238" stroke="#263238" stroke-width="2" stroke-linecap="round" stroke-linejoin="round"/>
<path d="M493.721 516.088L479.951 519.086C481.388 524.026 483.723 528.436 486.656 532.081L495.457 519.322C494.778 518.342 494.199 517.264 493.721 516.088Z" fill="#263238" stroke="#263238" stroke-width="2" stroke-linecap="round" stroke-linejoin="round"/>
<path d="M354.35 482.689C353.871 461.286 345.669 443.822 336.091 443.822H314L315.856 521.497H337.947C347.525 521.497 354.889 504.151 354.35 482.689Z" fill="#263238" stroke="#263238" stroke-width="2" stroke-linecap="round" stroke-linejoin="round"/>
<path d="M332.26 482.689C332.799 504.151 325.435 521.497 315.856 521.497C306.278 521.438 298.076 504.034 297.597 482.572C297.058 461.11 304.422 443.764 314.001 443.822C323.579 443.822 331.781 461.286 332.26 482.689Z" fill="#878787" stroke="#263238" stroke-width="2" stroke-linecap="round" stroke-linejoin="round"/>
<path d="M328.368 495.86C328.528 494.88 328.668 493.9 328.787 492.92C328.907 491.901 329.007 490.862 329.087 489.804C329.286 487.53 329.366 485.159 329.326 482.689C329.206 477.515 328.488 472.576 327.41 468.224C327.41 468.185 327.41 468.146 327.41 468.107C327.171 467.127 326.912 466.186 326.632 465.284C326.592 465.245 326.572 465.186 326.572 465.108C326.293 464.206 325.994 463.344 325.674 462.521C325.634 462.482 325.614 462.442 325.614 462.403C322.801 455.112 318.67 450.467 314.18 450.467C310.289 450.467 306.876 453.818 304.422 459.346C304.262 459.698 304.122 460.071 304.003 460.463C303.843 460.855 303.683 461.247 303.524 461.639C303.364 462.031 303.224 462.442 303.105 462.874C302.985 463.305 302.865 463.716 302.745 464.108C302.745 464.148 302.725 464.167 302.685 464.167C302.566 464.598 302.466 465.01 302.386 465.402C302.386 465.441 302.366 465.48 302.326 465.52C302.246 465.912 302.147 466.323 302.027 466.754C302.027 466.794 302.027 466.833 302.027 466.872C301.907 467.303 301.807 467.715 301.728 468.107C301.728 468.185 301.728 468.264 301.728 468.342C301.648 468.734 301.568 469.126 301.488 469.518C301.488 469.596 301.468 469.694 301.428 469.812C301.388 470.204 301.329 470.596 301.249 470.988C301.249 471.066 301.229 471.164 301.189 471.282C301.149 471.674 301.109 472.066 301.069 472.458C301.029 472.576 301.009 472.693 301.009 472.811C300.969 473.203 300.929 473.575 300.889 473.928C300.85 474.085 300.83 474.242 300.83 474.398C300.79 474.751 300.77 475.124 300.77 475.516C300.73 475.672 300.71 475.829 300.71 475.986C300.67 476.339 300.65 476.692 300.65 477.044C300.65 477.24 300.63 477.417 300.59 477.574C300.59 477.966 300.59 478.338 300.59 478.691C300.59 478.848 300.57 479.024 300.53 479.22C300.53 479.612 300.53 480.004 300.53 480.396C300.53 480.553 300.53 480.71 300.53 480.866C300.53 481.454 300.53 482.023 300.53 482.572C300.57 483.238 300.61 483.924 300.65 484.63C300.65 484.786 300.65 484.943 300.65 485.1C300.69 485.688 300.73 486.256 300.77 486.805C300.77 486.884 300.79 486.982 300.83 487.099C300.949 488.51 301.109 489.882 301.309 491.215C302.266 497.918 304.182 503.74 306.697 507.914C306.697 507.954 306.717 508.012 306.756 508.091C307.076 508.6 307.395 509.071 307.714 509.502C307.714 509.541 307.734 509.58 307.774 509.62C310.109 512.854 312.803 514.794 315.677 514.794C318.61 514.794 321.244 512.912 323.399 509.62C325.614 506.268 327.351 501.505 328.368 495.86Z" fill="white" stroke="#263238" stroke-width="2" stroke-linecap="round" stroke-linejoin="round"/>
<path d="M775.333 493.744C774.255 468.166 756.774 447.35 736.36 447.292H714.209C693.795 447.292 678.11 467.989 679.187 493.567C680.265 519.204 697.746 539.96 718.16 540.019H740.311C760.726 540.078 776.411 519.38 775.333 493.744Z" fill="#263238" stroke="#263238" stroke-width="2" stroke-linecap="round" stroke-linejoin="round"/>
<path fill-rule="evenodd" clip-rule="evenodd" d="M788.982 492.332C788.144 501.211 785.27 516.205 785.27 516.205C772.878 519.439 726.721 529.2 642.608 530.376C558.495 531.611 530.837 525.966 530.837 525.966C530.837 525.966 533.291 519.439 525.868 484.218C518.445 448.997 478.035 447.762 469.414 467.225C460.733 486.688 467.318 520.674 467.318 520.674L336.629 494.332C336.629 494.332 330.882 467.225 325.913 452.642C320.944 438.06 308.193 432.004 301.967 440.059C295.8 448.174 297.896 474.104 297.896 474.104C297.896 474.104 296.219 463.579 296.639 449.408C297.058 435.238 304.9 416.186 304.9 416.186C304.9 416.186 303.643 404.015 306.936 395.136C310.228 386.198 320.944 387.022 320.944 387.022L350.638 344.509C350.638 344.509 351.476 342.451 352.734 339.629C353.931 336.806 363.869 333.984 363.869 333.984C393.922 322.636 448.401 321.401 474.742 321.401C501.143 321.401 577.054 326.693 583.639 327.928C590.225 329.104 623.211 333.572 638.477 342.451C653.743 351.389 702.355 384.611 710.198 389.844C718.04 395.136 723.428 396.371 727.559 398.37C731.63 400.369 748.572 409.307 758.869 418.244C769.166 427.123 775.392 441.294 775.392 441.294C775.392 441.294 781.559 449.82 783.594 455.465C785.689 461.168 786.528 477.338 786.528 477.338C786.528 477.338 789.82 483.395 788.982 492.332ZM454.148 346.92C437.565 335.219 423.197 333.455 416.551 332.926C410.146 344.215 399.669 365.56 397.574 387.668C432.656 393.078 471.868 399.193 471.868 399.193C471.868 399.193 480.968 402.427 484.261 399.193C484.261 399.193 485.877 397.958 486.715 395.959C487.553 393.901 473.125 360.326 454.148 346.92Z" fill="#AD304B" stroke="#263238" stroke-width="2" stroke-linecap="round" stroke-linejoin="round"/>
<path d="M410.385 374.85C410.385 374.85 394.281 393.313 393.682 395.371C393.084 397.37 394.58 404.132 400.268 404.426C405.895 404.72 437.205 393.607 437.205 393.607L418.048 391.079L419.605 386.551" fill="#B3B3B3"/>
<path d="M410.385 374.85C410.385 374.85 394.281 393.313 393.682 395.371C393.084 397.37 394.58 404.132 400.268 404.426C405.895 404.72 437.205 393.607 437.205 393.607L418.048 391.079L419.605 386.551" stroke="#263238" stroke-width="2" stroke-linecap="round" stroke-linejoin="round"/>
<path d="M401.765 389.785L418.048 391.079" stroke="#263238" stroke-width="2" stroke-linecap="round" stroke-linejoin="round"/>
<path opacity="0.1" d="M786.588 492.332C787.426 483.395 784.133 477.338 784.133 477.338C784.133 477.338 783.834 472.164 783.235 466.637C731.63 481.572 639.316 482.572 613.573 480.337C583.999 477.809 531.496 470.753 529.221 462.403C526.886 454.054 506.591 435.061 492.642 429.946C480.729 425.536 342.257 406.72 302.925 401.428C301.727 408.895 302.506 416.186 302.506 416.186C302.506 416.186 294.663 435.238 294.244 449.408C293.825 463.579 295.501 474.104 295.501 474.104C295.501 474.104 293.406 448.174 299.572 440.059C305.798 432.004 318.55 438.06 323.519 452.642C328.488 467.225 334.235 494.332 334.235 494.332L464.924 520.674C464.924 520.674 458.339 486.688 467.019 467.225C475.64 447.762 516.05 448.997 523.473 484.218C530.897 519.439 528.442 525.966 528.442 525.966C528.442 525.966 556.101 531.611 640.214 530.376C724.326 529.2 770.483 519.439 782.876 516.205C782.876 516.205 785.749 501.211 786.588 492.332Z" fill="black"/>
<path d="M459.896 390.138C461.692 381.2 467.558 364.501 467.558 364.501C467.558 364.501 477.317 378.084 481.747 387.61C486.177 397.135 481.747 400.663 477.736 401.486C473.665 402.251 457.92 397.135 457.92 397.135L459.896 390.138Z" fill="#263238" stroke="#263238" stroke-width="2" stroke-linecap="round" stroke-linejoin="round"/>
<path d="M402.842 332.926C394.76 333.337 383.445 334.513 374.645 336.395C365.186 338.453 361.833 338.806 360.217 340.452C358.541 342.098 342.497 361.914 336.689 376.085C336.689 376.085 337.528 379.73 341.239 379.73C342.616 379.73 359.918 382.318 381.41 385.552C385.002 373.027 392.246 350.86 402.842 332.926Z" fill="#757575" stroke="#263238" stroke-width="2" stroke-linecap="round" stroke-linejoin="round"/>
<path d="M395.539 406.778L383.805 404.72C383.805 404.72 380.931 405.602 381.829 408.425C382.667 411.247 384.224 410.953 384.224 410.953L393.982 412.482C393.982 412.482 396.317 412.717 396.796 410.424C397.335 408.19 397.993 407.896 395.539 406.778Z" stroke="#263238" stroke-width="2" stroke-linecap="round" stroke-linejoin="round"/>
<path d="M336.21 396.724L327.29 395.077C327.29 395.077 325.075 395.783 325.734 398.076C326.392 400.369 327.59 400.134 327.59 400.134L335.073 401.369C335.073 401.369 336.809 401.545 337.228 399.722C337.587 397.9 338.066 397.664 336.21 396.724Z" stroke="#263238" stroke-width="2" stroke-linecap="round" stroke-linejoin="round"/>
<path d="M407.991 331.632C407.991 331.632 391.228 362.208 388.295 387.551" stroke="#263238" stroke-width="2" stroke-linecap="round" stroke-linejoin="round"/>
<path d="M384.523 392.725C384.523 392.725 376.86 405.426 376.561 409.718C376.322 414.07 377.16 465.931 378.656 475.457" stroke="#263238" stroke-width="2" stroke-linecap="round" stroke-linejoin="round"/>
<path d="M465.163 410.894C465.163 410.894 458.757 431.945 458.458 447.762C458.159 463.638 457.859 493.273 457.859 493.273" stroke="#263238" stroke-width="2" stroke-linecap="round" stroke-linejoin="round"/>
<path d="M335.791 381.788C335.791 381.788 322.022 394.195 320.825 398.194C319.687 402.251 321.124 436.825 321.124 436.825" stroke="#263238" stroke-width="2" stroke-linecap="round" stroke-linejoin="round"/>
<path d="M338.426 475.986C338.426 475.986 340.521 481.748 344.891 483.218C349.322 484.63 456.064 504.798 456.064 504.798" stroke="#263238" stroke-width="2" stroke-linecap="round" stroke-linejoin="round"/>
<path d="M647.816 494.273C647.816 494.273 729.594 495.39 759.947 486.217C759.947 486.217 756.953 506.092 751.326 510.149C745.698 514.206 704.809 518.322 684.934 518.969C662.424 519.733 649.672 517.499 649.672 517.499L647.816 494.273Z" fill="#263238" stroke="#263238" stroke-width="2" stroke-linecap="round" stroke-linejoin="round"/>
<path d="M633.149 444.175L641.411 460.757C641.411 460.757 687.568 461.874 692.837 462.227C698.045 462.58 703.672 465.167 709.719 462.227C715.706 459.287 741.568 455.994 744.561 455.994C747.555 455.994 751.326 458.581 751.326 458.581C751.326 458.581 744.561 442 741.927 440.53C739.353 439.001 736.719 439.412 735.581 439.412C734.444 439.412 679.666 435.355 633.149 444.175Z" fill="#263238" stroke="#263238" stroke-width="2" stroke-linecap="round" stroke-linejoin="round"/>
<path d="M546.223 411.071C546.223 411.071 526.587 408.131 519.044 410.718C511.501 413.305 515.272 423.301 528.084 432.592C540.955 441.823 551.492 450.761 564.722 452.231C577.893 453.701 600.523 458.522 601.66 454.465C602.797 450.349 598.667 435.532 583.58 424.83C568.494 414.07 546.223 411.071 546.223 411.071Z" fill="white" stroke="#263238" stroke-width="2" stroke-linecap="round" stroke-linejoin="round"/>
<path d="M703.912 389.962L700.14 391.079C700.14 391.079 693.136 391.314 681.941 391.608C672.362 391.902 659.67 392.196 645.662 392.608C626.325 393.078 604.473 393.607 584.717 394.019C554.544 394.666 529.281 394.96 525.449 394.43C518.924 393.49 511.62 391.138 504.855 385.316C501.084 382.082 497.432 377.672 494.139 371.792C485.099 355.505 462.11 335.513 462.11 335.513C498.27 331.397 584.717 332.926 594.476 333.278C596.93 333.396 600.103 333.749 603.575 334.337C614.052 336.16 627.702 340.217 635.604 345.509C637.041 346.45 639.316 347.92 642.129 349.801C648.775 354.152 658.593 360.562 668.471 366.971C674.457 370.852 680.384 374.732 685.712 378.143C696.129 384.905 703.912 389.962 703.912 389.962Z" fill="white" stroke="#263238" stroke-width="2" stroke-linecap="round" stroke-linejoin="round"/>
<path d="M635.604 345.509C637.041 346.45 639.316 347.92 642.13 349.801L584.718 394.019C554.545 394.666 529.281 394.96 525.45 394.43C518.924 393.49 511.62 391.138 504.855 385.316L603.576 334.337C614.052 336.16 627.702 340.217 635.604 345.509Z" fill="#263238" stroke="#263238" stroke-width="2" stroke-linecap="round" stroke-linejoin="round"/>
<path d="M685.713 378.143L681.941 391.608C672.363 391.902 659.671 392.196 645.662 392.608L668.471 366.971C674.458 370.852 680.385 374.732 685.713 378.143Z" fill="#263238" stroke="#263238" stroke-width="2" stroke-linecap="round" stroke-linejoin="round"/>
<path d="M622.613 433.121C624.888 435.394 627.083 437.805 629.199 440.353" stroke="#263238" stroke-width="2" stroke-linecap="round" stroke-linejoin="round"/>
<path d="M566.937 400.369C566.937 400.369 595.493 408.601 618.601 429.358" stroke="#263238" stroke-width="2" stroke-linecap="round" stroke-linejoin="round"/>
<path d="M749.829 439.706C752.703 444.998 754.978 450.878 756.355 457.405" stroke="#263238" stroke-width="2" stroke-linecap="round" stroke-linejoin="round"/>
<path d="M706.187 401.839C706.187 401.839 731.45 411.482 746.656 434.356" stroke="#263238" stroke-width="2" stroke-linecap="round" stroke-linejoin="round"/>
<path d="M589.567 501.505C589.567 505.798 585.376 509.267 580.168 509.267C574.96 509.267 570.709 505.798 570.709 501.505C570.709 497.213 574.96 493.744 580.168 493.744C585.376 493.744 589.567 497.213 589.567 501.505Z" fill="white" stroke="#263238" stroke-width="2" stroke-linecap="round" stroke-linejoin="round"/>
<path d="M784.911 488.863C784.133 492.568 781.559 495.155 779.224 494.684C776.889 494.214 775.632 490.804 776.41 487.099C777.248 483.395 779.763 480.808 782.097 481.278C784.492 481.748 785.749 485.159 784.911 488.863Z" fill="white" stroke="#263238" stroke-width="2" stroke-linecap="round" stroke-linejoin="round"/>
<path d="M463.547 397.37C463.547 397.37 456.961 386.434 452.771 385.787C448.64 385.081 430.979 384.434 427.148 386.786C423.376 389.197 424.394 397.018 425.771 399.017C427.148 401.075 432.716 402.133 437.565 401.78C442.414 401.428 458.698 402.78 458.698 402.78C458.698 402.78 468.396 409.601 471.868 408.895C475.281 408.248 479.831 400.722 476.717 396.665C473.604 392.608 468.755 393.607 463.547 397.37Z" fill="#263238" stroke="#263238" stroke-width="2" stroke-linecap="round" stroke-linejoin="round"/>
<path d="M463.547 397.37L474.981 399.722" stroke="#263238" stroke-width="2" stroke-linecap="round" stroke-linejoin="round"/>
<path d="M361.474 333.984C361.474 333.984 351.536 336.806 350.339 339.629C349.082 342.451 348.244 344.509 348.244 344.509L318.55 387.022C318.55 387.022 307.834 386.198 304.541 395.136C301.248 404.015 302.506 416.186 302.506 416.186C302.506 416.186 294.663 435.238 294.244 449.408C293.825 463.579 295.501 474.104 295.501 474.104C295.501 474.104 293.406 448.174 299.572 440.059C305.798 432.004 318.55 438.06 323.519 452.642C328.488 467.225 334.235 494.332 334.235 494.332L464.924 520.674C464.924 520.674 458.339 486.688 467.019 467.225C475.64 447.762 516.05 448.997 523.473 484.218C530.897 519.439 528.442 525.966 528.442 525.966C528.442 525.966 556.101 531.611 640.214 530.376C724.326 529.2 770.483 519.439 782.876 516.205C782.876 516.205 785.749 501.211 786.588 492.332C787.426 483.395 784.133 477.338 784.133 477.338C784.133 477.338 783.295 461.168 781.2 455.465C779.164 449.82 772.998 441.294 772.998 441.294C772.998 441.294 766.772 427.123 756.475 418.244C746.177 409.307 729.235 400.369 725.164 398.37C721.034 396.371 715.646 395.136 707.803 389.844C699.96 384.611 651.349 351.389 636.083 342.451C620.817 333.572 587.83 329.104 581.245 327.928C574.659 326.693 498.749 321.401 472.347 321.401C446.006 321.401 391.527 322.636 361.474 333.984Z" stroke="#263238" stroke-width="2" stroke-linecap="round" stroke-linejoin="round"/>
<path d="M741.628 407.778C741.628 407.778 733.306 410.718 735.581 413.658C737.856 416.657 750.309 424.418 755.996 434.062C761.623 443.705 762.761 448.526 765.395 448.526C768.029 448.526 773.776 443.705 772.998 441.294C772.22 438.883 768.029 417.01 741.628 407.778Z" fill="white" stroke="#263238" stroke-width="2" stroke-linecap="round" stroke-linejoin="round"/>
<path d="M326.513 481.984C326.453 478.044 326.034 474.222 325.376 470.753L319.748 477.456C319.988 478.867 320.167 480.396 320.227 481.984C320.227 482.219 320.227 482.434 320.227 482.63L326.513 484.63C326.553 483.767 326.553 482.885 326.513 481.984Z" fill="#263238" stroke="#263238" stroke-width="2" stroke-linecap="round" stroke-linejoin="round"/>
<path d="M316.635 469.753C317.233 470.341 317.772 471.164 318.251 472.223L322.142 460.639C320.766 457.817 319.149 455.641 317.413 454.406L316.635 469.753Z" fill="#263238" stroke="#263238" stroke-width="2" stroke-linecap="round" stroke-linejoin="round"/>
<path d="M319.389 489.51C319.109 490.608 318.77 491.568 318.371 492.391L321.604 506.15C323.101 503.681 324.418 500.329 325.256 496.331L319.389 489.51Z" fill="#263238" stroke="#263238" stroke-width="2" stroke-linecap="round" stroke-linejoin="round"/>
<path d="M309.93 474.81L304.242 467.225C303.404 470.929 302.925 475.222 302.865 479.749L309.211 480.102C309.271 478.162 309.51 476.398 309.93 474.81Z" fill="#263238" stroke="#263238" stroke-width="2" stroke-linecap="round" stroke-linejoin="round"/>
<path d="M311.846 470.224C312.325 469.596 312.824 469.146 313.342 468.871L312.444 453.524C310.409 454.23 308.613 456.17 307.116 458.993L311.846 470.224Z" fill="#263238" stroke="#263238" stroke-width="2" stroke-linecap="round" stroke-linejoin="round"/>
<path d="M315.617 495.214C315.417 495.253 315.198 495.272 314.958 495.272C314.419 495.272 313.821 495.096 313.282 494.684L310.169 507.856C311.785 509.62 313.522 510.619 315.318 510.678C315.796 510.678 316.275 510.6 316.754 510.443L315.617 495.214Z" fill="#263238" stroke="#263238" stroke-width="2" stroke-linecap="round" stroke-linejoin="round"/>
<path d="M309.87 487.628L303.584 490.333C304.243 494.743 305.26 498.683 306.637 501.917L310.708 490.51C310.389 489.647 310.109 488.687 309.87 487.628Z" fill="#263238" stroke="#263238" stroke-width="2" stroke-linecap="round" stroke-linejoin="round"/>
<path d="M296.4 367.735C296.4 367.735 366.025 371.557 372.131 374.027C378.238 376.555 379.794 382.553 379.794 382.553L292.568 379.554L296.4 367.735Z" fill="white" stroke="#263238" stroke-width="2" stroke-linecap="round" stroke-linejoin="round"/>
<path d="M347.286 334.043C347.286 334.043 307.595 362.384 292.568 379.554L277.242 376.555L319.688 336.512L347.286 334.043Z" fill="white" stroke="#263238" stroke-width="2" stroke-linecap="round" stroke-linejoin="round"/>
<path fill-rule="evenodd" clip-rule="evenodd" d="M379.015 412.306C378.417 426.124 382.428 490.392 382.428 490.392L322.262 480.808C266.825 445.234 251.619 393.137 251.619 393.137C252.038 389.197 276.584 368.617 276.584 368.617C276.584 368.617 318.67 334.043 321.364 333.631C367.76 326.634 410.386 332.22 410.386 332.22C398.233 352.212 390.689 388.139 390.689 388.139C390.689 388.139 379.375 403.897 379.015 412.306ZM382.188 383.141C382.188 383.141 393.383 344.568 396.496 339.041C396.496 339.041 351.177 334.631 326.213 338.629L289.874 367.088C289.874 367.088 283.708 373.145 289.874 375.144C295.98 377.143 382.188 383.141 382.188 383.141Z" fill="#AD304B" stroke="#263238" stroke-width="2" stroke-linecap="round" stroke-linejoin="round"/>
<path d="M268.082 388.727L260.36 388.08C260.36 388.08 257.366 388.374 257.366 391.02C257.366 393.666 259.701 393.96 259.701 393.96L274.608 395.312C274.608 395.312 274.249 390.902 276.583 389.55L268.082 388.727Z" fill="#263238" stroke="#263238" stroke-width="2" stroke-linecap="round" stroke-linejoin="round"/>
<path d="M257.726 394.842C257.726 394.842 260.18 398.017 262.635 398.017C265.089 398.017 274.428 398.958 274.428 398.958" fill="#92E3A9"/>
<path d="M257.726 394.842C257.726 394.842 260.18 398.017 262.635 398.017C265.089 398.017 274.428 398.958 274.428 398.958" stroke="#263238" stroke-width="2" stroke-linecap="round" stroke-linejoin="round"/>
<path d="M744.382 340.099L747.315 339.864L759.827 377.261L756.295 377.731L744.382 340.099Z" fill="#263238" stroke="#263238" stroke-width="2" stroke-linecap="round" stroke-linejoin="round"/>
<path d="M723.967 338.276C723.967 338.276 728.397 335.866 729.415 335.866C730.373 335.866 734.024 340.628 734.024 340.628C734.024 340.628 728.996 343.392 728.397 343.627C727.798 343.804 724.326 342.216 724.326 342.216C724.326 342.216 720.914 344.803 719.297 347.743C717.681 350.742 711.036 361.62 711.036 361.62C711.036 361.62 707.444 366.794 703.612 364.56C699.781 362.384 698.344 357.269 699.96 355.093C701.577 352.918 723.967 338.276 723.967 338.276Z" fill="white" stroke="#263238" stroke-width="2" stroke-linecap="round" stroke-linejoin="round"/>
<path d="M720.495 343.804C720.495 343.804 721.752 345.215 722.95 345.391C724.147 345.568 727.559 345.568 727.559 345.568C727.559 345.568 731.391 345.215 728.397 343.627C725.344 342.04 722.95 341.216 722.95 341.216" fill="white"/>
<path d="M720.495 343.804C720.495 343.804 721.752 345.215 722.95 345.391C724.147 345.568 727.559 345.568 727.559 345.568C727.559 345.568 731.391 345.215 728.397 343.627C725.344 342.04 722.95 341.216 722.95 341.216" stroke="#263238" stroke-width="2" stroke-linecap="round" stroke-linejoin="round"/>
<path d="M168.884 248.724L152.66 260.249L137.932 249.077C131.227 244.373 126.917 236.729 126.917 228.085C126.917 213.856 138.651 202.331 153.079 202.331C167.566 202.331 179.3 213.856 179.3 228.085C179.3 236.611 175.349 244.02 168.884 248.724Z" fill="white" stroke="#263238" stroke-width="2" stroke-linecap="round" stroke-linejoin="round"/>
<path d="M130.09 227.909C130.09 233.377 132.065 238.434 135.418 242.315C139.609 247.372 146.014 250.547 153.139 250.547C159.724 250.547 165.651 247.842 169.841 243.491C173.793 239.434 176.187 233.906 176.187 227.909C176.187 215.384 165.89 205.271 153.139 205.271C140.387 205.271 130.09 215.384 130.09 227.909Z" fill="white" stroke="#263238" stroke-width="2" stroke-linejoin="round"/>
<path d="M153.139 250.547C158.826 250.547 164.035 248.489 168.046 245.137C167.327 237.493 160.742 231.496 152.78 231.496C144.997 231.496 138.591 237.199 137.514 244.549C141.644 248.254 147.092 250.547 153.139 250.547Z" fill="#263238" stroke="#263238" stroke-width="2" stroke-linejoin="round"/>
<path d="M162.897 221.323C162.897 226.792 158.347 231.26 152.78 231.26C147.152 231.26 142.603 226.792 142.603 221.323C142.603 215.796 147.152 211.327 152.78 211.327C158.347 211.327 162.897 215.796 162.897 221.323Z" fill="#263238" stroke="#263238" stroke-width="2" stroke-linejoin="round"/>
<path d="M449.958 320.872L433.794 332.396L419.067 321.224H419.007C412.361 316.52 407.991 308.876 407.991 300.233C407.991 286.003 419.725 274.478 434.213 274.478C448.641 274.478 460.375 286.003 460.375 300.233C460.375 308.759 456.483 316.168 449.958 320.872Z" fill="white" stroke="#263238" stroke-width="2" stroke-linecap="round" stroke-linejoin="round"/>
<path d="M411.224 300.056C411.224 305.525 413.199 310.582 416.492 314.462C420.742 319.46 427.088 322.694 434.272 322.694C440.858 322.694 446.784 319.99 450.975 315.638C454.866 311.581 457.321 306.054 457.321 300.056C457.321 287.532 446.964 277.418 434.272 277.418C421.521 277.418 411.224 287.532 411.224 300.056Z" fill="white" stroke="#263238" stroke-width="2" stroke-linejoin="round"/>
<path d="M434.273 322.694C439.96 322.694 445.109 320.636 449.179 317.285C448.401 309.641 441.816 303.643 433.854 303.643C426.071 303.643 419.665 309.347 418.647 316.697C422.718 320.401 428.226 322.694 434.273 322.694Z" fill="#263238" stroke="#263238" stroke-width="2" stroke-linejoin="round"/>
<path d="M444.03 293.471C444.03 298.939 439.481 303.408 433.853 303.408C428.226 303.408 423.676 298.939 423.676 293.471C423.676 287.944 428.226 283.475 433.853 283.475C439.481 283.475 444.03 287.944 444.03 293.471Z" fill="#263238" stroke="#263238" stroke-width="2" stroke-linejoin="round"/>
<path d="M218.753 536.962C218.753 540.196 191.634 542.842 158.228 542.842C124.822 542.842 97.7627 540.196 97.7627 536.962C97.7627 533.728 124.822 531.14 158.228 531.14C191.634 531.14 218.753 533.728 218.753 536.962Z" fill="#263238" stroke="#263238" stroke-width="2" stroke-linecap="round" stroke-linejoin="round"/>
<path d="M191.334 505.504L197.56 524.378C197.56 524.378 206.78 526.436 209.054 526.142C211.27 525.907 219.591 524.202 219.771 525.79C219.95 527.318 217.316 528.318 216.478 529.082C215.7 529.847 209.952 533.492 207.737 534.433C205.582 535.374 198.937 537.256 196.961 538.196C195.046 539.078 192.711 540.725 191.214 537.726C189.718 534.786 188.999 531.023 188.76 529.024C188.52 527.024 178.522 511.09 178.522 511.09L191.334 505.504Z" fill="white" stroke="#263238" stroke-width="2" stroke-linecap="round" stroke-linejoin="round"/>
<path d="M209.653 526.142C209.234 526.201 208.695 526.201 208.037 526.084L208.576 528.788C208.576 528.788 196.542 533.081 190.556 534.551C190.855 535.609 191.274 536.726 191.813 537.726C193.31 540.725 195.644 539.078 197.56 538.196C199.536 537.256 206.181 535.374 208.336 534.433C210.551 533.492 216.298 529.847 217.077 529.082C217.915 528.318 220.549 527.318 220.369 525.79C220.19 524.202 211.868 525.907 209.653 526.142Z" fill="#AD304B" stroke="#263238" stroke-width="2" stroke-linecap="round" stroke-linejoin="round"/>
<path d="M231.384 322.694C231.384 322.694 235.096 321.93 234.737 322.812C234.318 323.635 231.684 324.223 231.684 324.223C231.684 324.223 234.557 324.341 234.018 324.929C233.48 325.517 231.923 325.693 231.923 325.693L230.666 326.928C230.666 326.928 229.528 327.986 229.229 328.28C228.93 328.574 226.415 330.515 225.876 329.515C225.338 328.516 225.877 326.458 226.415 325.987C226.954 325.517 231.384 322.694 231.384 322.694Z" fill="white" stroke="#263238" stroke-width="2" stroke-linecap="round" stroke-linejoin="round"/>
<path d="M164.214 334.631L184.15 345.332L219.232 332.984C219.232 332.984 220.788 330.691 223.003 327.163C225.278 323.576 229.229 321.871 230.965 320.872C232.702 319.813 234.138 320.284 233.659 321.342C233.18 322.4 229.948 323.341 229.289 324.047C228.631 324.811 225.338 329.221 225.338 329.221C225.338 329.221 231.265 326.34 232.223 326.281C233.24 326.164 233.779 326.928 232.402 327.81C231.025 328.692 228.631 330.044 228.152 330.691C227.613 331.338 226.475 332.69 225.577 333.337C224.679 333.984 223.183 334.69 223.183 334.69C223.183 334.69 189.238 357.034 187.442 357.916C185.587 358.856 181.695 358.856 181.695 358.856L163.376 351.448L164.214 334.631Z" fill="white" stroke="#263238" stroke-width="2" stroke-linecap="round" stroke-linejoin="round"/>
<path d="M188.879 344.333L184.15 345.92L164.214 335.219L163.376 352.036L181.695 359.444C181.695 359.444 185.587 359.444 187.442 358.504C187.861 358.327 190.196 356.916 193.609 354.858L188.879 344.333Z" fill="#AD304B" stroke="#263238" stroke-width="2" stroke-linecap="round" stroke-linejoin="round"/>
<path d="M110.933 501.152L105.006 514.912C105.006 514.912 96.5651 522.967 96.6849 524.084C96.8046 525.26 98.0618 527.965 100.456 529.2C102.851 530.376 106.563 532.375 106.563 532.375C106.563 532.375 112.31 536.08 115.902 536.903C119.494 537.726 123.326 539.137 123.924 537.256C124.463 535.374 117.638 531.493 117.638 531.493C117.638 531.493 114.525 525.672 113.926 523.908C113.388 522.144 113.687 518.204 113.687 518.204L124.463 506.327L110.933 501.152Z" fill="white" stroke="#263238" stroke-width="2" stroke-linecap="round" stroke-linejoin="round"/>
<path d="M117.638 531.493C117.638 531.493 115.363 531.434 113.687 530.905C112.071 530.376 108.299 526.966 104.647 522.791C103.39 521.262 102.073 520.027 100.875 518.969C98.7801 521.144 96.6249 523.496 96.6848 524.084C96.8045 525.26 98.0617 527.965 100.456 529.2C102.851 530.376 106.563 532.375 106.563 532.375C106.563 532.375 112.31 536.08 115.902 536.903C119.494 537.726 123.325 539.137 123.924 537.256C124.463 535.374 117.638 531.493 117.638 531.493Z" fill="#AD304B" stroke="#263238" stroke-width="2" stroke-linecap="round" stroke-linejoin="round"/>
<path d="M128.833 415.01L128.773 457.464L106.562 500.27L126.618 511.972L150.684 466.99L156.491 435.355L128.833 415.01Z" fill="white" stroke="#263238" stroke-width="2" stroke-linecap="round" stroke-linejoin="round"/>
<path d="M127.456 391.961C127.456 391.961 122.427 408.248 123.325 411.835C124.223 415.481 152.061 470.4 152.061 470.4L174.451 515.441L199.296 508.208L178.163 449.408L162.478 413.188V393.784L127.456 391.961Z" fill="white" stroke="#263238" stroke-width="2" stroke-linecap="round" stroke-linejoin="round"/>
<path d="M162.298 312.875L160.024 318.696L154.276 315.697L154.935 309.523L162.298 312.875Z" fill="white" stroke="#263238" stroke-width="2" stroke-linecap="round" stroke-linejoin="round"/>
<path d="M163.676 320.754C163.676 320.754 160.203 321.754 160.563 325.105C160.922 328.398 166.31 341.216 167.627 348.037C168.944 354.858 167.806 356.387 168.046 359.386C168.285 362.384 166.849 390.197 167.268 395.018C167.687 399.899 165.771 400.252 152.78 399.958C139.789 399.722 132.425 397.958 128.354 395.665C124.283 393.431 126.199 389.903 127.636 387.08C129.073 384.258 135 347.508 138.113 338.218C141.226 328.927 141.824 325.458 146.913 322.106C152.002 318.755 152.66 319.402 153.019 317.932C153.379 316.52 154.157 314.345 154.157 314.345L163.676 320.754Z" fill="#AD304B" stroke="#263238" stroke-width="2" stroke-linecap="round" stroke-linejoin="round"/>
<path d="M152.301 355.916C152.301 355.916 155.773 359.621 160.562 360.15" stroke="#263238" stroke-width="2" stroke-linecap="round" stroke-linejoin="round"/>
<path d="M150.445 368.5C150.924 369.088 151.403 369.656 151.882 370.205" stroke="#263238" stroke-width="2" stroke-linecap="round" stroke-linejoin="round"/>
<path d="M144.698 356.504C144.698 356.504 146.135 361.855 149.069 366.559" stroke="#263238" stroke-width="2" stroke-linecap="round" stroke-linejoin="round"/>
<path d="M174.511 286.826C174.511 286.826 176.187 290.472 174.87 294.353C173.493 298.234 173.194 300.115 174.212 301.644C175.289 303.173 175.709 305.054 174.032 305.995C172.296 306.936 171.278 306.936 171.278 306.936C171.278 306.936 168.225 314.227 166.19 314.992C164.214 315.697 157.689 313.228 155.593 311.875C153.498 310.523 155.174 296.117 156.611 293.647C158.108 291.178 174.511 286.826 174.511 286.826Z" fill="white" stroke="#263238" stroke-width="2" stroke-linecap="round" stroke-linejoin="round"/>
<path d="M168.704 306.995C166.429 307.054 165.471 304.643 165.471 304.643C165.471 304.643 164.094 308.7 165.83 309.288C167.566 309.817 168.704 306.995 168.704 306.995Z" stroke="#263238" stroke-width="2" stroke-linecap="round" stroke-linejoin="round"/>
<path d="M172.237 298.822C171.997 299.821 171.398 300.527 170.919 300.409C170.381 300.292 170.081 299.41 170.321 298.41C170.5 297.469 171.099 296.705 171.638 296.822C172.177 296.94 172.416 297.822 172.237 298.822Z" fill="#263238"/>
<path d="M179.72 279.829C179.72 279.829 179.84 285.18 175.769 287.944C171.698 290.648 161.281 293.647 159.724 294.588C158.168 295.47 158.168 297.175 158.168 297.175C158.168 297.175 156.671 306.583 156.671 310.64C156.731 314.698 160.443 317.99 159.126 320.989C157.749 323.929 153.379 324.106 150.565 324.164C147.811 324.223 148.589 328.163 143.68 330.632C138.771 333.161 134.88 331.985 132.246 328.222C129.612 324.458 130.869 322.518 128.594 321.754C126.319 320.93 122.667 322.694 120.033 316.462C117.339 310.229 119.793 305.525 121.709 304.29C123.625 303.055 130.869 303.467 130.51 295.646C130.09 287.885 136.796 275.537 146.793 270.539C156.731 265.541 172.716 275.066 174.871 276.066C177.026 277.007 179.84 277.83 179.72 279.829Z" fill="#263238" stroke="#263238" stroke-width="2" stroke-linecap="round" stroke-linejoin="round"/>
<path d="M170.201 383.494C170.201 383.494 164.633 342.098 160.023 332.161C155.473 322.224 150.744 317.461 143.56 326.164C136.376 334.807 133.023 385.61 133.023 385.61" stroke="#263238" stroke-width="4" stroke-linecap="round" stroke-linejoin="round"/>
<path d="M155.354 338.335C155.354 338.335 138.711 376.496 136.197 378.966C133.682 381.436 124.283 386.551 121.888 380.495C119.434 374.497 139.549 329.868 144.039 325.34C148.469 320.813 156.97 322.636 157.21 330.632" fill="#AD304B"/>
<path d="M155.354 338.335C155.354 338.335 138.711 376.496 136.197 378.966C133.682 381.436 124.283 386.551 121.888 380.495C119.434 374.497 139.549 329.868 144.039 325.34C148.469 320.813 156.97 322.636 157.21 330.632" stroke="#263238" stroke-width="2" stroke-linecap="round" stroke-linejoin="round"/>
<path d="M156.791 375.203C156.791 375.203 160.263 374.438 162.179 372.616C164.095 370.793 166.43 370.087 168.465 370.322C170.501 370.558 173.314 370.44 173.494 372.498C173.614 374.556 172.177 375.732 171.578 376.026C170.979 376.32 170.381 383.317 168.764 384.258C167.208 385.199 160.922 383.611 158.707 383.141C156.492 382.729 142.483 384.964 135.419 384.199C128.354 383.435 121.949 383.141 121.889 380.495C121.769 377.908 125.181 370.852 133.144 370.616C141.106 370.322 147.751 375.144 156.791 375.203Z" fill="white" stroke="#263238" stroke-width="2" stroke-linecap="round" stroke-linejoin="round"/>
<path d="M170.201 383.494C170.201 383.494 166.788 385.493 150.684 385.846C134.64 386.14 133.024 385.61 133.024 385.61C133.024 385.61 128.234 405.838 129.911 408.072C133.084 412.07 165.412 411.306 168.584 408.307C171.757 405.308 170.201 383.494 170.201 383.494Z" fill="#969696" stroke="#263238" stroke-width="2" stroke-linecap="round" stroke-linejoin="round"/>
<path d="M169.962 295.47C169.962 295.47 171.04 293.824 173.135 294.706" stroke="#263238" stroke-width="2" stroke-linecap="round" stroke-linejoin="round"/>
</svg>
